<svg width="140" height="32" viewBox="0 0 140 32" fill="none" xmlns="http://www.w3.org/2000/svg">
<path d="M49.4899 20.9518C49.0456 20.9518 48.5335 20.8839 47.9534 20.7481L46.1207 20.2483L46.6205 18.7488C47.6572 19.119 48.5211 19.3042 49.2122 19.3042C49.5825 19.3042 49.891 19.2178 50.1379 19.045C50.3847 18.8722 50.5081 18.6377 50.5081 18.3415C50.5081 18.0453 50.4279 17.8232 50.2674 17.6751C50.107 17.527 49.8108 17.3974 49.3789 17.2863L48.3792 17.0271C46.9969 16.6692 46.3058 15.8547 46.3058 14.5835C46.3058 13.8183 46.5958 13.1889 47.1759 12.6952C47.7683 12.2016 48.5396 11.9547 49.4899 11.9547C49.8725 11.9547 50.323 12.0226 50.8413 12.1584L52.6741 12.6582L52.1742 14.1577C51.1746 13.7875 50.4155 13.6023 49.8972 13.6023C49.5516 13.6023 49.2616 13.6949 49.0271 13.88C48.7926 14.0528 48.6754 14.2811 48.6754 14.565C48.6754 14.8612 48.7556 15.0833 48.916 15.2314C49.0765 15.3795 49.3727 15.5091 49.8046 15.6202L50.7858 15.8794C51.5263 16.0768 52.057 16.3792 52.3779 16.7865C52.6987 17.1814 52.8592 17.6936 52.8592 18.323C52.8592 19.0758 52.5753 19.7053 52.0076 20.2113C51.4399 20.7049 50.6007 20.9518 49.4899 20.9518ZM57.4074 20.9518C56.4818 20.9518 55.8277 20.7234 55.4451 20.2668C55.0749 19.8102 54.8898 19.1129 54.8898 18.1749V13.7504H53.5198V12.1214H54.8898V9.95541L57.2408 9.4926V12.1214H59.2772V13.7504H57.2408V18.2119C57.2408 18.9401 57.537 19.3042 58.1294 19.3042C58.4873 19.3042 58.8699 19.1931 59.2772 18.9709L59.6474 20.3594C58.9687 20.7543 58.222 20.9518 57.4074 20.9518ZM63.1717 20.9518C62.3325 20.9518 61.6661 20.6926 61.1724 20.1742C60.6787 19.6559 60.4319 19.0388 60.4319 18.323C60.4319 17.7923 60.6047 17.3665 60.9503 17.0457C61.3082 16.7124 61.8635 16.4533 62.6164 16.2681L65.5969 15.5276V14.7686C65.5969 14.4107 65.4858 14.1269 65.2636 13.9171C65.0538 13.7073 64.7576 13.6023 64.375 13.6023C63.9431 13.6023 62.9681 13.9294 61.4501 14.5835L60.8022 13.084L62.9126 12.3065C63.5543 12.072 64.0233 11.9547 64.3195 11.9547C65.4426 11.9547 66.325 12.2509 66.9668 12.8433C67.6209 13.4234 67.9479 14.1886 67.9479 15.1389V18.323C67.9479 18.5575 67.985 18.9092 68.059 19.3782C68.1454 19.8349 68.2565 20.2236 68.3922 20.5445L66.3744 20.9518C66.1276 20.6803 65.8684 20.3038 65.5969 19.8225C64.77 20.5753 63.9616 20.9518 63.1717 20.9518ZM64.0048 19.3042C64.4861 19.3042 65.0168 19.0265 65.5969 18.4711V16.6014L63.7456 17.1382C63.1532 17.311 62.857 17.638 62.857 18.1194C62.857 18.4896 62.9619 18.7796 63.1717 18.9895C63.3816 19.1993 63.6592 19.3042 64.0048 19.3042ZM72.8378 20.9518C71.9122 20.9518 71.2581 20.7234 70.8755 20.2668C70.5053 19.8102 70.3201 19.1129 70.3201 18.1749V13.7504H68.9502V12.1214H70.3201V9.95541L72.6712 9.4926V12.1214H74.7076V13.7504H72.6712V18.2119C72.6712 18.9401 72.9674 19.3042 73.5598 19.3042C73.9177 19.3042 74.3003 19.1931 74.7076 18.9709L75.0778 20.3594C74.399 20.7543 73.6524 20.9518 72.8378 20.9518ZM98.9841 20.7852H96.633V15.7313C96.633 14.9908 96.522 14.4539 96.2998 14.1207C96.09 13.7751 95.7506 13.6023 95.2816 13.6023C94.8126 13.6023 94.3066 13.88 93.7636 14.4354V20.7852H91.4125V15.7313C91.4125 14.9908 91.3076 14.4539 91.0978 14.1207C90.888 13.7751 90.5425 13.6023 90.0611 13.6023C89.6045 13.6023 89.0985 13.88 88.5431 14.4354V20.7852H86.192V14.5835C86.192 14.349 86.1488 14.0035 86.0625 13.5468C85.9884 13.0778 85.8835 12.6829 85.7477 12.362L87.7471 11.9547C88.0063 12.2139 88.2716 12.5903 88.5431 13.084C89.3206 12.3312 90.129 11.9547 90.9682 11.9547C92.2147 11.9547 93.0601 12.3929 93.5044 13.2691C93.776 12.9112 94.1647 12.6027 94.6707 12.3435C95.1767 12.0843 95.6827 11.9547 96.1887 11.9547C97.1267 11.9547 97.824 12.2263 98.2806 12.7693C98.7496 13.3123 98.9841 14.1577 98.9841 15.3055V20.7852ZM103.253 20.9518C102.413 20.9518 101.747 20.6926 101.253 20.1742C100.76 19.6559 100.513 19.0388 100.513 18.323C100.513 17.7923 100.685 17.3665 101.031 17.0457C101.389 16.7124 101.944 16.4533 102.697 16.2681L105.678 15.5276V14.7686C105.678 14.4107 105.567 14.1269 105.344 13.9171C105.135 13.7073 104.838 13.6023 104.456 13.6023C104.024 13.6023 103.049 13.9294 101.531 14.5835L100.883 13.084L102.993 12.3065C103.635 12.072 104.104 11.9547 104.4 11.9547C105.523 11.9547 106.406 12.2509 107.048 12.8433C107.702 13.4234 108.029 14.1886 108.029 15.1389V18.323C108.029 18.5575 108.066 18.9092 108.14 19.3782C108.226 19.8349 108.337 20.2236 108.473 20.5445L106.455 20.9518C106.208 20.6803 105.949 20.3038 105.678 19.8225C104.851 20.5753 104.042 20.9518 103.253 20.9518ZM104.086 19.3042C104.567 19.3042 105.098 19.0265 105.678 18.4711V16.6014L103.826 17.1382C103.234 17.311 102.938 17.638 102.938 18.1194C102.938 18.4896 103.043 18.7796 103.253 18.9895C103.462 19.1993 103.74 19.3042 104.086 19.3042ZM112.488 20.7852H110.137V14.5835C110.137 14.349 110.094 14.0035 110.008 13.5468C109.934 13.0778 109.829 12.6829 109.693 12.362L111.692 11.9547C112.075 12.3373 112.34 12.8557 112.488 13.5098C112.735 13.0161 113.062 12.6335 113.47 12.362C113.889 12.0905 114.34 11.9547 114.821 11.9547C115.093 11.9547 115.339 11.9979 115.562 12.0843L115.154 14.1022H114.543C113.963 14.1022 113.507 14.2441 113.173 14.528C112.853 14.7995 112.624 15.2561 112.488 15.8979V20.7852ZM124.714 20.7852H121.826L118.956 16.3052V20.7852H116.605V8.41888L118.956 7.95607V15.6572L121.881 12.1214H124.528L121.048 15.9904L124.714 20.7852ZM128.928 20.9518C127.533 20.9518 126.478 20.5383 125.762 19.7114C125.059 18.8722 124.707 17.7738 124.707 16.4162C124.707 15.0587 125.071 13.9788 125.799 13.1766C126.527 12.362 127.539 11.9547 128.835 11.9547C131.34 11.9547 132.593 13.2568 132.593 15.8609C132.593 16.1324 132.562 16.3607 132.501 16.5458H127.132C127.132 17.4714 127.299 18.1626 127.632 18.6192C127.977 19.0758 128.452 19.3042 129.057 19.3042C129.736 19.3042 130.625 19.0573 131.723 18.5637L132.371 20.0632L130.409 20.7852C130.075 20.8962 129.582 20.9518 128.928 20.9518ZM128.705 13.6023C128.212 13.6023 127.823 13.7751 127.539 14.1207C127.268 14.4663 127.132 14.8982 127.132 15.4166H130.149C130.149 14.2071 129.668 13.6023 128.705 13.6023ZM137.203 20.9518C136.277 20.9518 135.623 20.7234 135.241 20.2668C134.871 19.8102 134.685 19.1129 134.685 18.1749V13.7504H133.315V12.1214H134.685V9.95541L137.036 9.4926V12.1214H139.073V13.7504H137.036V18.2119C137.036 18.9401 137.333 19.3042 137.925 19.3042C138.283 19.3042 138.666 19.1931 139.073 18.9709L139.443 20.3594C138.764 20.7543 138.018 20.9518 137.203 20.9518Z" fill="#54618E"/>
<path d="M83.5079 20.7852H81.2679V17.9342H76.214L75.7142 16.4903L80.9902 8.93723H83.5079V16.1941H84.6927V17.9342H83.5079V20.7852ZM81.2679 16.1941V11.3809L77.9912 16.1941H81.2679Z" fill="#D653D2"/>
<mask id="mask0_1525_19228" style="mask-type:alpha" maskUnits="userSpaceOnUse" x="0" y="0" width="35" height="33">
<ellipse cx="17.5" cy="16.0001" rx="17.5" ry="16" fill="url(#paint0_linear_1525_19228)"/>
</mask>
<g mask="url(#mask0_1525_19228)">
<ellipse cx="17.5" cy="16.0001" rx="17.5" ry="16" fill="url(#paint1_linear_1525_19228)"/>
<path d="M23.065 20.4408V2.65679C23.065 2.38479 23.0737 2.08879 23.0912 1.76879C23.1262 1.44879 23.1613 1.12079 23.1963 0.784792L7.13125 20.4408H23.065ZM37.9357 20.4408V21.6888C37.9357 21.8648 37.8745 22.0088 37.752 22.1208C37.647 22.2168 37.472 22.2648 37.227 22.2648H25.27V32.0088H23.065V22.2648H5.50375C5.24125 22.2648 5.04 22.2168 4.9 22.1208C4.76 22.0088 4.66375 21.8648 4.61125 21.6888L4.375 20.5608L23.0387 -1.99921H25.27V20.4408H37.9357Z" fill="white"/>
</g>
<defs>
<linearGradient id="paint0_linear_1525_19228" x1="40.25" y1="-9.59988" x2="13.6834" y2="34.1965" gradientUnits="userSpaceOnUse">
<stop stop-color="#FF00AA"/>
<stop offset="1" stop-color="#8912DE"/>
</linearGradient>
<linearGradient id="paint1_linear_1525_19228" x1="40.25" y1="-9.59988" x2="13.6834" y2="34.1965" gradientUnits="userSpaceOnUse">
<stop stop-color="#FF00AA"/>
<stop offset="1" stop-color="#8912DE"/>
</linearGradient>
</defs>
</svg>
