<svg xmlns="http://www.w3.org/2000/svg">  
 

 <symbol viewBox="0 0 24 24" id="phone">
  <path d="M23.9481 18.5956C23.8802 18.3911 23.4483 18.0898 22.6528 17.6924C22.4372 17.5671 22.1301 17.3969 21.7328 17.181C21.335 16.965 20.974 16.7661 20.6504 16.5842C20.3261 16.4024 20.0222 16.2263 
  19.7384 16.0561C19.693 16.022 19.551 15.9227 19.3123 15.7576C19.0735 15.5929 18.872 15.4707 18.707 15.391C18.5422 15.3118 18.3802 15.2719 18.2211 15.2719C17.9939 15.2719 17.7101 15.4339 17.3693 
  15.7576C17.0285 16.0816 16.7159 16.4336 16.432 16.8147C16.148 17.1955 15.8468 17.5475 15.5289 17.8714C15.2106 18.1954 14.949 18.3572 14.7447 18.3572C14.6422 18.3572 14.5143 18.3286 14.361 
  18.2722C14.2078 18.2154 14.0913 18.1668 14.0113 18.1276C13.932 18.0875 13.7959 18.0082 13.6026 17.8885C13.409 17.7692 13.3013 17.7038 13.2786 17.6924C11.7218 16.8286 10.3867 15.8399 9.273 
  14.7266C8.15962 13.6127 7.17084 12.2777 6.30725 10.7208C6.29591 10.6981 6.23042 10.5901 6.11119 10.397C5.99179 10.2038 5.91221 10.0676 5.87245 9.98781C5.83268 9.90835 5.78439 9.79181 5.72767 
  9.63844C5.67095 9.48506 5.64248 9.3573 5.64248 9.25491C5.64248 9.05049 5.80445 8.789 6.12833 8.47079C6.45215 8.15276 6.80451 7.8515 7.18505 7.56762C7.56589 7.28374 7.91789 6.97114 8.24183 
  6.63036C8.56565 6.2894 8.72756 6.00546 8.72756 5.77824C8.72756 5.61925 8.6878 5.45716 8.60834 5.29244C8.52882 5.12737 
  8.40667 4.92594 8.24183 4.68719C8.07693 4.44856 7.97753 4.30665 7.94338 4.26098C7.77311 3.97709 7.59717 3.67315 7.41514 3.34927C7.23311 3.02545 7.03442 2.66449 6.81842 2.26682C6.6026 1.86932 
  6.43227 1.5624 6.30713 1.34651C5.90964 0.551227 5.60856 0.119224 5.40397 0.0512838C5.32438 0.0171941 5.20498 0 5.04605 0C4.73907 0 4.33859 0.0567167 3.84432 0.170508C3.34987 0.284121 2.96079 
  0.403286 2.67667 0.52848C2.10849 0.766989 1.50628 1.46013 0.869857 2.60766C0.290332 3.6756 0.000598907 4.73262 0.000598907 5.77794C0.000598907 6.08451 0.0204796 6.38278 0.060241 6.67281C0.100002 
  6.96254 0.171047 7.28929 0.273436 7.65299C0.375645 8.01658 0.458093 8.28667 0.520422 8.46255C0.58281 8.63855 0.699289 8.95384 0.869797 9.40852C1.04007 9.86309 1.14245 10.1414 1.17654 10.2436C1.57422 
  11.3573 2.0458 12.3515 2.59118 13.2266C3.4885 14.681 4.71304 16.1841 6.26409 17.7353C7.8152 19.2864 9.31802 20.5108 10.7726 21.4085C11.6475 21.9538 12.6421 22.4254 13.7556 22.8233C13.8579 22.8573 
  14.1362 22.9594 14.5906 23.1303C15.0451 23.3007 15.3605 23.4171 15.5365 23.4796C15.7126 23.5422 15.9828 23.6247 16.346 23.7271C16.7101 23.8295 17.0366 23.9005 17.3263 23.9406C17.6162 23.9798 17.9145 
  24.0001 18.2212 24.0001C19.2664 24.0001 20.3235 23.7101 21.3916 23.1307C22.539 22.4945 23.232 21.8922 23.4706 21.3236C23.5961 21.0397 23.715 20.6506 23.8286 20.1561C23.9426 19.6619 23.9992 19.2615 
  23.9992 18.9545C23.9995 18.795 23.9824 18.6759 23.9481 18.5956Z"/>
  </symbol>

  <symbol viewBox="0 0 48 47" id="price">
    <path d="M0 44.075C0 37.4 0 30.8 0 24.125C0.3 23.15 1.05 22.625 1.875 22.175C2.175 22.025 2.475 21.875 2.775 21.8C3.15 21.725 3.225 21.5 3.225 21.2C3.225 16.475 3.225 11.825 3.225 7.1C3.225 3.725 5.625 1.25 8.85 1.25C19.95 1.25 31.125 1.25 42.225 1.25C43.8 1.25 44.775 2.225 44.775 3.875C44.775 6.05 44.775 8.225 44.775 10.4C44.775 10.55 44.775 10.775 44.775 10.925C47.025 11.675 48 12.95 48 15.275C48 23 48 30.8 48 38.525C48 38.975 48 39.425 47.85 39.875C47.4 41.675 45.825 42.875 43.8 42.875C37.125 42.875 30.525 42.875 23.85 42.875C23.625 42.875 23.475 42.875 23.25 42.875C23.25 42.95 23.25 42.95 23.25 42.95C23.25 43.025 23.25 43.1 23.25 43.175C23.325 44.3 22.8 45.125 21.825 45.65C21 46.1 20.1 46.475 19.275 46.7C16.875 47.375 14.325 47.6 11.85 47.6C8.925 47.6 6 47.375 3.15 46.4C1.8 46.025 0.525 45.5 0 44.075ZM46.425 22.85C46.425 22.625 46.425 22.475 46.425 22.325C46.425 19.925 46.425 17.525 46.425 15.125C46.425 13.4 45.45 12.425 43.725 12.425C32.175 12.425 20.55 12.425 9 12.425C7.5 12.425 6.15 11.975 5.025 11C4.95 10.925 4.875 10.925 4.8 10.85C4.8 14.3 4.8 17.675 4.8 21.05C4.95 21.05 5.1 21.05 5.25 20.975C9.225 20.15 13.2 20.15 17.25 20.825C18.825 21.05 20.4 21.5 21.825 22.325C22.725 23 23.25 23.75 23.25 24.95C23.175 30.2 23.25 35.375 23.25 40.625C23.25 40.85 23.25 41 23.25 41.225C23.4 41.225 23.55 41.225 23.7 41.225C30.45 41.225 37.125 41.225 43.875 41.225C45.45 41.225 46.5 40.25 46.5 38.6C46.5 36.2 46.5 33.725 46.5 31.325C46.5 31.175 46.5 31.025 46.5 30.875C45.225 30.875 43.95 30.875 42.75 30.875C42.15 30.875 41.55 30.8 40.95 30.575C39.225 29.9 38.25 27.95 38.625 26.15C39 24.275 40.575 22.925 42.45 22.925C43.65 22.85 45 22.85 46.425 22.85ZM43.2 7.625C42.975 7.625 42.75 7.625 42.525 7.625C30.9 7.625 19.2 7.625 7.575 7.625C6.75 7.625 6.375 7.325 6.375 6.8C6.375 6.275 6.75 5.975 7.575 5.975C19.2 5.975 30.9 5.975 42.525 5.975C42.75 5.975 42.9 5.975 43.2 5.975C43.2 5.225 43.2 4.55 43.2 3.95C43.2 3.05 42.975 2.825 42.075 2.825C31.05 2.825 20.1 2.825 9.075 2.825C8.7 2.825 8.325 2.825 8.025 2.9C6 3.35 4.65 5.225 4.8 7.1C5.025 9.2 6.675 10.775 8.775 10.775C20.1 10.775 31.425 10.775 42.825 10.775C42.975 10.775 43.05 10.775 43.2 10.7C43.2 9.8 43.2 8.75 43.2 7.625ZM11.625 22.025C9.375 22.025 7.125 22.175 4.95 22.775C3.975 23.075 3 23.45 2.1 23.9C1.425 24.275 1.425 24.65 2.1 25.025C2.625 25.325 3.15 25.55 3.675 25.775C5.4 26.375 7.125 26.6 8.925 26.75C12.075 26.975 15.225 26.9 18.375 26.15C19.275 25.925 20.175 25.55 21.075 25.1C21.825 24.725 21.825 24.275 21.075 23.825C20.625 23.525 20.1 23.3 19.575 23.15C16.95 22.25 14.325 22.1 11.625 22.025ZM1.575 26.675C1.575 27.35 1.65 28.025 1.575 28.7C1.5 29.3 1.8 29.75 2.325 29.975C3.45 30.35 4.5 30.875 5.7 31.1C8.85 31.775 12 31.775 15.225 31.475C17.025 31.325 18.75 30.95 20.475 30.275C21.3 29.9 21.825 29.45 21.675 28.4C21.6 27.875 21.675 27.275 21.675 26.75C15.15 29.075 7.875 29.075 1.575 26.675ZM1.575 36.275C1.575 37.025 1.65 37.7 1.575 38.375C1.575 38.975 1.8 39.35 2.25 39.5C3.075 39.875 3.9 40.25 4.8 40.475C9 41.525 13.275 41.45 17.55 40.7C18.75 40.475 19.95 40.175 21 39.5C21.225 39.35 21.6 39.125 21.6 38.825C21.675 38 21.6 37.1 21.6 36.2C18.375 37.7 15 38 11.625 38C8.175 38.075 4.8 37.775 1.575 36.275ZM1.575 41.075C1.575 41.825 1.575 42.5 1.575 43.25C1.575 43.775 1.725 44.15 2.175 44.375C3 44.75 3.75 45.125 4.575 45.35C8.85 46.4 13.2 46.4 17.55 45.575C18.675 45.35 19.8 44.825 20.925 44.45C21.15 44.375 21.525 44.075 21.525 43.85C21.6 43.025 21.525 42.125 21.525 41.225C15.225 43.475 7.875 43.475 1.575 41.075ZM21.6 31.475C18.375 32.975 15 33.275 11.625 33.275C8.25 33.275 4.8 32.975 1.65 31.475C1.65 32.3 1.65 33.05 1.65 33.8C1.65 34.175 1.8 34.475 2.1 34.625C2.7 34.925 3.3 35.225 3.9 35.45C5.85 36.125 7.95 36.35 9.975 36.425C12.825 36.575 15.675 36.425 18.45 35.675C19.35 35.45 20.25 35 21.075 34.625C21.3 34.55 21.6 34.175 21.6 33.95C21.6 33.2 21.6 32.375 21.6 31.475ZM46.35 29.225C46.35 27.575 46.35 26 46.35 24.425C44.925 24.425 43.575 24.425 42.225 24.425C41.025 24.5 40.05 25.55 40.05 26.75C40.05 27.95 40.95 29.075 42.15 29.15C43.5 29.3 44.925 29.225 46.35 29.225Z" fill="#CF51CE"/>
<path d="M38.0253 15.6505C36.0753 15.6505 34.1253 15.6505 32.2503 15.6505C31.9503 15.6505 31.6503 15.5005 31.4253 15.3505C31.2753 15.2005 31.2003 14.7505 31.3503 14.6005C31.5003 14.3755 31.8003 14.1505 32.1003 14.1505C32.7003 14.0755 33.3003 14.1505 33.9003 14.1505C37.2003 14.1505 40.4253 14.1505 43.7253 14.1505C43.8753 14.1505 43.9503 14.1505 44.1003 14.1505C44.5503 14.2255 44.9253 14.5255 44.9253 14.9755C44.9253 15.4255 44.5503 15.7255 44.1003 15.7255C42.6753 15.7255 41.3253 15.7255 39.9003 15.7255C39.2253 15.6505 38.6253 15.6505 38.0253 15.6505Z" fill="#CF51CE"/>
<path d="M27.9744 15.6512C27.6744 15.6512 27.3744 15.6512 27.1494 15.6512C26.6994 15.6512 26.3994 15.3512 26.3994 14.9012C26.3994 14.4512 26.6994 14.0762 27.1494 14.0762C27.7494 14.0762 28.2744 14.0762 28.8744 14.0762C29.3244 14.0762 29.6244 14.4512 29.6244 14.9012C29.6244 15.3512 29.2494 15.6512 28.7994 15.6512C28.4994 15.6512 28.2744 15.6512 27.9744 15.6512Z" fill="#CF51CE"/>
<path d="M42.3738 27.65C41.9238 27.65 41.5488 27.275 41.5488 26.825C41.5488 26.375 41.9238 26 42.3738 26C42.8238 26 43.1238 26.375 43.1238 26.75C43.1988 27.275 42.8238 27.65 42.3738 27.65Z"/>
  </symbol>

  <symbol  viewBox="0 0 38 38" id="target">
  <g clip-path="url(#clip0_1458_23898)">
  <path d="M27.6406 12.5C26.5719 13.5687 25.5032 14.6374 24.3752 15.7654C25.6814 17.4872 26.1563 19.4465 25.6814 21.5839C25.2658 23.2463 24.3158 24.6118 22.8909 25.5618C20.1004 27.521 16.36 27.1054 14.0445 24.6118C11.6697 22.0588 11.5509 18.3184 13.8071 15.6467C15.8257 13.2125 19.7442 12.025 23.2471 14.578C24.3158 13.5093 25.3845 12.4406 26.4532 11.3126C24.5533 9.70955 22.3566 8.7596 19.7442 8.58149C19.7442 9.29395 19.7442 9.94703 19.7442 10.6595C19.7442 11.2532 19.4473 11.6094 18.9724 11.6094C18.4974 11.6094 18.2005 11.2532 18.2005 10.6595C18.2005 9.11583 18.2005 7.63155 18.2005 6.08789C18.2005 5.90977 18.2005 5.73166 18.2005 5.55354C16.7163 5.61291 15.2913 5.90977 13.9258 6.44411C9.17607 8.344 6.14812 11.7876 4.90132 16.7748C4.90132 16.8935 4.84195 16.9529 4.84195 17.0716C4.72321 17.4872 4.36698 17.7247 3.95138 17.6653C3.53578 17.5466 3.29829 17.1904 3.35766 16.7154C3.77326 14.578 4.60446 12.6188 5.85127 10.897C8.81984 6.91909 12.679 4.6036 17.6068 4.12863C17.7849 4.12863 18.0224 4.06925 18.2599 4.06925C18.2599 3.41617 18.2599 2.70371 18.2599 2.05062C18.2599 1.33816 18.4974 0.981934 19.0317 0.981934C19.5067 0.981934 19.8036 1.33816 19.8036 1.99125C19.8036 3.53491 19.8036 5.0192 19.8036 6.56286C19.8036 6.74097 19.8036 6.91909 19.8036 7.0972C22.7722 7.33469 25.3845 8.40338 27.5812 10.3033C27.9375 9.94704 28.2343 9.59081 28.6499 9.17521C27.8781 8.64086 27.1656 8.04715 26.3344 7.57217C25.0283 6.80034 23.6627 6.20663 22.1784 5.90977C22.0597 5.90977 21.941 5.8504 21.8816 5.8504C21.466 5.73166 21.2285 5.31606 21.3472 4.90045C21.466 4.48485 21.8222 4.24737 22.2972 4.36611C24.1971 4.72234 25.9188 5.4348 27.5219 6.50349C28.2937 7.03783 29.0062 7.57217 29.8967 8.22526C29.9561 7.98777 30.1342 7.80966 30.1342 7.63155C30.1342 6.80034 30.1342 6.02851 30.1342 5.19731C30.1342 4.90045 30.253 4.54423 30.4905 4.36611C31.4404 3.35679 32.4497 2.34748 33.459 1.33816C33.7559 1.04131 34.0527 0.922562 34.409 1.10068C34.7652 1.21942 34.8839 1.57565 34.8839 1.93188C34.8839 2.70371 34.8839 3.41617 34.8839 4.24737C35.6558 4.24737 36.4276 4.24737 37.1994 4.24737C37.615 4.24737 37.9119 4.36611 38.09 4.72234C38.2088 5.13794 38.09 5.4348 37.7932 5.67229C36.7838 6.62223 35.8339 7.63155 34.8839 8.58149C34.6465 8.81898 34.2902 8.93772 33.9934 8.93772C33.2215 8.99709 32.3903 8.93772 31.6185 8.93772C31.4404 8.93772 31.2029 9.11583 30.9654 9.17521C32.2716 10.6595 33.2215 12.1438 33.934 13.8656C34.6465 15.5873 35.0027 17.3091 35.1214 19.209C35.8339 19.209 36.5463 19.209 37.1994 19.209C37.7932 19.209 38.1494 19.5059 38.1494 19.9808C38.1494 20.4558 37.7932 20.7527 37.1994 20.7527C35.6558 20.7527 34.1121 20.7527 32.5685 20.7527C32.3903 20.7527 32.2122 20.7527 32.1529 20.7527C31.7966 22.0588 31.6185 23.365 31.1435 24.5524C29.5999 28.5303 26.75 31.1427 22.6534 32.3895C22.5347 32.3895 22.4753 32.4488 22.3566 32.4488C21.8816 32.5676 21.5254 32.3301 21.4066 31.9145C21.2879 31.4989 21.5254 31.1427 22.0003 30.9646C22.2972 30.8458 22.594 30.7864 22.8315 30.6677C27.3438 28.9459 29.8967 25.6211 30.4311 20.8714C30.4311 20.812 30.4311 20.812 30.4311 20.6933C29.778 20.6933 29.0655 20.6933 28.4124 20.6933C27.8187 20.6933 27.4625 20.3964 27.4625 19.9215C27.4625 19.4465 27.8187 19.1496 28.4124 19.1496C29.9561 19.1496 31.4404 19.1496 32.9841 19.1496C33.1622 19.1496 33.3403 19.1496 33.5184 19.1496C33.2809 15.7654 32.0935 12.7969 29.8967 10.3033C29.5405 10.6595 29.1843 11.0157 28.8281 11.372C28.8874 11.4313 28.9468 11.5501 29.0655 11.6688C30.1936 13.0344 31.0248 14.578 31.4998 16.2998C31.7373 17.0122 31.5591 17.4278 31.0842 17.606C30.6092 17.7247 30.253 17.4278 30.0749 16.7748C29.4811 15.2311 28.7093 13.8062 27.6406 12.5ZM22.1191 15.7654C20.3379 14.2812 17.2506 14.1624 15.1726 16.2998C13.154 18.4372 13.154 21.5839 15.232 23.6619C17.31 25.7399 20.516 25.7992 22.594 23.7806C24.7314 21.762 24.7314 18.6747 23.1878 16.7748C22.8909 17.0716 22.6534 17.3091 22.3566 17.606C22.1191 17.7841 22.1784 17.9622 22.2972 18.1997C22.7128 19.0309 22.8909 19.8621 22.6534 20.7527C22.1784 22.8307 20.0411 24.1368 18.0224 23.6025C15.9444 23.0681 14.6976 20.8714 15.2913 18.8528C15.9444 16.7748 18.1412 15.528 20.1004 16.3592C20.9316 16.7154 21.4066 16.4779 21.8222 15.8842C22.0003 15.8842 22.0597 15.8248 22.1191 15.7654ZM21.0504 18.9715C20.516 19.5059 20.0411 20.0402 19.5661 20.5152C19.2692 20.812 18.8536 20.812 18.5568 20.5152C18.2599 20.2183 18.2005 19.8621 18.438 19.5059C18.5568 19.3871 18.6755 19.2684 18.7943 19.1496C19.2099 18.734 19.6255 18.3184 20.0411 17.9028C18.913 17.4278 17.7849 17.7841 17.1912 18.6747C16.5975 19.5652 16.7163 20.7527 17.4881 21.5245C18.2599 22.2963 19.388 22.4151 20.3379 21.8213C21.1691 21.2276 21.5254 20.0996 21.0504 18.9715ZM31.6185 7.39406C32.2716 7.39406 32.8653 7.39406 33.459 7.39406C33.5778 7.39406 33.7559 7.39406 33.8153 7.33469C34.2902 6.85972 34.8246 6.32537 35.4183 5.73166C34.8839 5.73166 34.4683 5.73166 34.1121 5.73166C33.5778 5.73166 33.2809 5.4348 33.2809 4.90045C33.2809 4.48485 33.2809 4.06925 33.2809 3.53491C32.6872 4.12863 32.2122 4.6036 31.7373 5.07857C31.6779 5.13794 31.6185 5.25668 31.6185 5.37543C31.5591 6.08789 31.6185 6.6816 31.6185 7.39406Z" fill="white"/>
  <path d="M3.00158 20.7525C2.34849 20.7525 1.63604 20.7525 0.923577 20.7525C0.329862 20.7525 -0.0263672 20.4557 -0.0263672 19.9807C-0.0263672 19.5057 0.329862 19.2682 0.864206 19.2089C2.58598 19.2089 4.24838 19.2089 5.97016 19.2089C6.20764 18.1995 6.32639 17.2496 6.62325 16.2996C6.86073 15.5278 7.21696 14.756 7.51382 14.0435C7.75131 13.5686 8.16691 13.3904 8.58251 13.6279C8.99811 13.8654 9.11685 14.281 8.81999 14.756C8.10753 16.1809 7.63256 17.6652 7.57319 19.2682C8.22628 19.2682 8.81999 19.2682 9.47308 19.2682C10.1855 19.2682 10.5418 19.5057 10.6011 20.0401C10.6011 20.5744 10.2449 20.8119 9.47308 20.8119C7.98879 20.8119 6.56387 20.8119 5.07959 20.8119C4.90147 20.8119 4.72336 20.8119 4.54524 20.8119C4.60461 22.0587 4.78273 23.2461 5.19833 24.3742C6.97948 29.5395 10.4824 32.8049 15.7665 34.1111C15.9446 34.1705 16.1821 34.2299 16.3602 34.3486C16.657 34.5861 16.7758 34.8829 16.5977 35.2392C16.4195 35.5954 16.1227 35.7735 15.7071 35.7141C13.8666 35.2985 12.0854 34.6455 10.4824 33.6361C6.20765 30.6676 3.71404 26.6303 3.12032 21.4056C3.12032 21.2275 3.06095 21.0494 3.06095 20.8713C3.06095 20.8713 3.06095 20.8119 3.00158 20.7525Z" fill="white"/>
  <path d="M19.8041 35.9522C19.8041 36.6646 19.8041 37.3177 19.8041 38.0302C19.8041 38.6239 19.5073 38.9801 19.0323 38.9801C18.5573 38.9801 18.2604 38.6239 18.2604 38.0302C18.2604 36.4865 18.2604 34.9429 18.2604 33.3992C18.2604 33.2211 18.2604 33.043 18.2604 32.9242C17.4886 32.8055 16.7762 32.6867 16.0637 32.5086C11.2546 31.2618 8.10791 28.2933 6.62363 23.5435C6.56425 23.3654 6.50488 23.2467 6.50488 23.0686C6.50488 22.653 6.683 22.4155 7.03923 22.2967C7.39546 22.178 7.75169 22.2967 7.9298 22.653C7.98917 22.8311 8.04854 23.0092 8.10791 23.1873C9.41409 27.6995 13.6295 31.1431 18.2604 31.3212C18.2604 30.6681 18.2604 29.9557 18.2604 29.3026C18.2604 28.7089 18.5573 28.3526 18.9729 28.3526C19.4479 28.3526 19.7447 28.7089 19.7447 29.3026C19.7447 30.7869 19.7447 32.3305 19.7447 33.8148C19.7447 33.9929 19.7447 34.171 19.7447 34.4679C20.6947 34.2898 21.6446 34.171 22.5352 33.9929C24.1382 33.6367 25.5631 32.9836 26.9287 32.093C27.0474 32.0337 27.1662 31.9149 27.2849 31.8555C27.6412 31.7368 27.938 31.7962 28.1755 32.093C28.413 32.3899 28.3536 32.7461 28.1161 32.9836C27.9974 33.1023 27.8193 33.2211 27.6412 33.3398C25.3257 34.8241 22.7727 35.6553 20.0416 35.8928C20.0416 35.8928 19.9229 35.9522 19.8041 35.9522Z" fill="white"/>
  <path d="M31.976 28.9461C31.2041 28.9461 30.9072 28.3524 31.2041 27.6992C31.7385 26.6305 32.2728 25.5024 32.7478 24.3743C32.926 23.8993 33.0447 23.3649 33.1635 22.8899C33.2822 22.4149 33.6385 22.1774 34.0541 22.2367C34.4697 22.3555 34.7072 22.7118 34.6478 23.2461C34.2916 25.1461 33.5791 26.868 32.5103 28.4711C32.3322 28.7086 32.0947 28.8867 31.976 28.9461Z" fill="white"/>
  <path d="M12.2049 10.6593C12.0268 10.4812 11.7299 10.3031 11.6112 10.0062C11.433 9.64993 11.6705 9.35305 11.9674 9.11555C13.0955 8.40305 14.3424 7.8093 15.6487 7.51243C16.0643 7.39368 16.3612 7.51243 16.5393 7.86868C16.7768 8.2843 16.5987 8.81868 16.1237 8.9968C14.8768 9.35305 13.7487 9.82805 12.6799 10.5406C12.6205 10.5406 12.5018 10.5406 12.2049 10.6593Z" fill="white"/>
  <path d="M10.8389 11.7874C10.8389 12.203 10.4826 12.4999 10.067 12.4999C9.65137 12.4999 9.35449 12.1436 9.35449 11.728C9.35449 11.3124 9.71074 11.0155 10.1264 11.0155C10.4826 11.0155 10.8389 11.3718 10.8389 11.7874Z" fill="white"/>
  <path d="M30.6687 30.5492C30.6687 30.9648 30.3125 31.321 29.8969 31.321C29.4812 31.321 29.125 31.0242 29.125 30.6085C29.125 30.1929 29.4219 29.8367 29.8375 29.8367C30.3125 29.8367 30.6687 30.1335 30.6687 30.5492Z" fill="white"/>
  </g>
  <defs>
  <clipPath id="clip0_1458_23898">
  <rect width="37.9978" height="37.9978" fill="white" transform="translate(0.0332031 0.981445)"/>
  </clipPath>
  </defs>
  </symbol>

      <symbol viewBox="0 0 48 48" id="site">
        <path d="M3.2 40.6H24.8V43C24.8 44.325 25.875 45.4 27.2 45.4H30.4C31.1 45.4 31.7625 45.0875 32.2125 44.5625C32.225 44.5625 32.2375 44.5625 32.25 44.55C32.8375 45.1 33.6 45.4 34.4 45.4H44C45.325 45.4 46.4 44.325 46.4 43C46.4 42.5875 46.2875 42.175 46.075 41.825C47.1625 41.15 47.525 39.7375 46.875 38.625C47.475 38.25 47.875 37.625 47.975 36.925C48.075 36.225 47.85 35.5125 47.375 35C48.0125 34.3 48.175 33.2875 47.7875 32.425C47.4 31.5625 46.5375 31 45.5875 31H43.1875V6.2C43.1875 4.4375 41.75 3 39.9875 3H3.2C1.4375 3 0 4.4375 0 6.2V37.4C0 39.1625 1.4375 40.6 3.2 40.6ZM30.4 43.8H27.2C26.7625 43.8 26.4 43.4375 26.4 43V35.8C26.4 35.3625 26.7625 35 27.2 35H30.4C30.8375 35 31.2 35.3625 31.2 35.8V43C31.2 43.4375 30.8375 43.8 30.4 43.8ZM46.4 33.4C46.4 33.8375 46.0375 34.2 45.6 34.2H43.2C42.7625 34.2 42.4 34.5625 42.4 35C42.4 35.4375 42.7625 35.8 43.2 35.8H45.6C46.0375 35.8 46.4 36.1625 46.4 36.6C46.4 37.0375 46.0375 37.4 45.6 37.4H43.2C42.7625 37.4 42.4 37.7625 42.4 38.2C42.4 38.6375 42.7625 39 43.2 39H44.8C45.2375 39 45.6 39.3625 45.6 39.8C45.6 40.2375 45.2375 40.6 44.8 40.6H43.2C42.7625 40.6 42.4 40.9625 42.4 41.4C42.4 41.8375 42.7625 42.2 43.2 42.2H44C44.4375 42.2 44.8 42.5625 44.8 43C44.8 43.4375 44.4375 43.8 44 43.8H34.4C33.5125 43.8 32.8 43.0875 32.8 42.2V35.4625C33.8 34.8375 34.55 33.875 34.925 32.7625C35.6375 30.625 36 28.3875 36 26.1375C36 26.025 36.075 25.9375 36.175 25.9C36.45 25.85 37.1625 25.725 37.8375 27.05C38.2125 27.8125 38.4 28.65 38.3875 29.5125V31.8C38.3875 32.2375 38.75 32.6 39.1875 32.6H45.5875C46.0375 32.6 46.4 32.9625 46.4 33.4ZM40 31V29.5125C40.0125 28.4125 39.7625 27.3125 39.275 26.325C38.4875 24.7875 37.2875 24.075 35.9 24.325C35.025 24.4875 34.4 25.25 34.4 26.1375C34.4 28.2125 34.0625 30.2875 33.4125 32.2625C33.1625 33 32.675 33.625 32.025 34.0625C31.5875 33.65 31 33.425 30.4 33.4125H27.2C25.875 33.4125 24.8 34.4875 24.8 35.8125V39.0125H3.2C2.3125 39.0125 1.6 38.3 1.6 37.4125V11H41.6V31H40ZM3.2 4.6H40C40.8875 4.6 41.6 5.3125 41.6 6.2V9.4H1.6V6.2C1.6 5.3125 2.3125 4.6 3.2 4.6Z" fill="white"/>
<path fill-rule="evenodd" clip-rule="evenodd" d="M4.79922 6.99898C4.79922 7.43648 4.43672 7.79898 3.99922 7.79898C3.56172 7.79898 3.19922 7.43648 3.19922 6.99898C3.19922 6.56148 3.56172 6.19897 3.99922 6.19897C4.43672 6.19897 4.79922 6.56148 4.79922 6.99898Z" fill="white"/>
<path fill-rule="evenodd" clip-rule="evenodd" d="M8.00039 6.99898C8.00039 7.43648 7.63789 7.79898 7.20039 7.79898C6.76289 7.79898 6.40039 7.43648 6.40039 6.99898C6.40039 6.56148 6.76289 6.19897 7.20039 6.19897C7.63789 6.19897 8.00039 6.56148 8.00039 6.99898Z" fill="white"/>
<path fill-rule="evenodd" clip-rule="evenodd" d="M11.1996 6.99898C11.1996 7.43648 10.8371 7.79898 10.3996 7.79898C9.96211 7.79898 9.59961 7.43648 9.59961 6.99898C9.59961 6.56148 9.96211 6.19897 10.3996 6.19897C10.8371 6.19897 11.1996 6.56148 11.1996 6.99898Z" fill="white"/>
<path d="M6.4 27.8005H19.2C20.525 27.8005 21.6 26.7255 21.6 25.4005V15.8005C21.6 14.4755 20.525 13.4005 19.2 13.4005H6.4C5.075 13.4005 4 14.4755 4 15.8005V25.4005C4 26.7255 5.075 27.8005 6.4 27.8005ZM8.3625 26.2005L12.0625 20.3755L13.8375 22.6005L11.5625 26.2005H8.3625ZM19.2 26.2005H13.4625L17.675 19.5755L20 22.488V25.413C20 25.838 19.6375 26.2005 19.2 26.2005ZM5.6 15.8005C5.6 15.363 5.9625 15.0005 6.4 15.0005H19.2C19.6375 15.0005 20 15.363 20 15.8005V19.9255L18.225 17.7005C18.0625 17.5005 17.8125 17.388 17.5625 17.4005C17.3 17.413 17.075 17.5505 16.925 17.7755L14.7625 21.1755L12.625 18.5005C12.4625 18.3005 12.2125 18.188 11.9625 18.2005C11.7 18.213 11.475 18.3505 11.325 18.5755L6.475 26.2005H6.4C5.9625 26.2005 5.6 25.838 5.6 25.4005V15.8005Z" fill="white"/>
<path fill-rule="evenodd" clip-rule="evenodd" d="M8.79922 17.3995C8.79922 17.837 8.43672 18.1995 7.99922 18.1995C7.56172 18.1995 7.19922 17.837 7.19922 17.3995C7.19922 16.962 7.56172 16.5995 7.99922 16.5995C8.43672 16.5995 8.79922 16.962 8.79922 17.3995Z" fill="white"/>
<path fill-rule="evenodd" clip-rule="evenodd" d="M38.4 14.199H24.8C24.3625 14.199 24 14.5615 24 14.999C24 15.4365 24.3625 15.799 24.8 15.799H38.4C38.8375 15.799 39.2 15.4365 39.2 14.999C39.2 14.5615 38.8375 14.199 38.4 14.199Z" fill="white"/>
<path fill-rule="evenodd" clip-rule="evenodd" d="M38.4 17.4005H24.8C24.3625 17.4005 24 17.763 24 18.2005C24 18.638 24.3625 19.0005 24.8 19.0005H38.4C38.8375 19.0005 39.2 18.638 39.2 18.2005C39.2 17.763 38.8375 17.4005 38.4 17.4005Z" fill="white"/>
<path fill-rule="evenodd" clip-rule="evenodd" d="M38.4 20.5995H24.8C24.3625 20.5995 24 20.962 24 21.3995C24 21.837 24.3625 22.1995 24.8 22.1995H38.4C38.8375 22.1995 39.2 21.837 39.2 21.3995C39.2 20.962 38.8375 20.5995 38.4 20.5995Z" fill="white"/>
<path fill-rule="evenodd" clip-rule="evenodd" d="M32 23.801H24.8C24.3625 23.801 24 24.1635 24 24.601C24 25.0385 24.3625 25.401 24.8 25.401H32C32.4375 25.401 32.8 25.0385 32.8 24.601C32.8 24.1635 32.4375 23.801 32 23.801Z" fill="white"/>
<path fill-rule="evenodd" clip-rule="evenodd" d="M23.2 31H4.8C4.3625 31 4 31.3625 4 31.8C4 32.2375 4.3625 32.6 4.8 32.6H23.2C23.6375 32.6 24 32.2375 24 31.8C24 31.3625 23.6375 31 23.2 31Z" fill="white"/>
<path fill-rule="evenodd" clip-rule="evenodd" d="M20.8 34.199H4.8C4.3625 34.199 4 34.5615 4 34.999C4 35.4365 4.3625 35.799 4.8 35.799H20.8C21.2375 35.799 21.6 35.4365 21.6 34.999C21.6 34.5615 21.2375 34.199 20.8 34.199Z" fill="white"/>
  		</symbol>

       <symbol viewBox="0 0 38 38" id="friends">
        <g clip-path="url(#clip0_1458_23935)">
        <path d="M10.5641 37.9972C9.87526 37.6911 9.56913 37.2319 9.64566 36.4665C9.64566 36.0839 9.64566 35.6247 9.64566 35.242C9.49259 35.242 9.33953 35.242 9.18646 35.242C7.34966 35.242 5.5894 35.242 3.7526 35.242C2.8342 35.242 2.375 34.7828 2.375 33.8644C2.375 33.4817 2.375 33.0991 2.375 32.7164C2.375 32.3337 2.6046 32.1041 2.91073 32.1041C3.21687 32.1041 3.44647 32.3337 3.44647 32.7164C3.44647 33.0991 3.44647 33.4817 3.44647 33.8644C3.44647 34.0175 3.523 34.094 3.67607 34.094C5.66593 34.094 7.57926 34.094 9.64566 34.094C9.64566 32.8695 9.64566 31.7215 9.64566 30.5735C8.19153 29.6551 7.73233 29.0428 7.50273 27.3591C6.58433 27.3591 5.66593 27.2825 4.82406 27.3591C4.05873 27.4356 3.523 28.2775 3.44647 29.1193C3.44647 29.502 3.44647 29.8081 3.44647 30.1908C3.44647 30.5735 3.21687 30.8031 2.91073 30.8031C2.6046 30.8031 2.375 30.5735 2.375 30.1908C2.375 29.8081 2.375 29.3489 2.375 28.9663C2.45153 28.0479 2.91073 27.2825 3.67607 26.7468C3.7526 26.6703 3.82913 26.6703 3.90567 26.5937C3.59953 25.5988 3.21687 24.6804 2.98727 23.762C1.76273 18.8639 2.52807 14.3484 5.3598 10.1391C5.51286 9.90949 5.5894 9.75642 5.43633 9.45029C5.05366 8.68496 5.20673 7.76656 5.819 7.15429C6.43126 6.54203 7.27313 6.31243 8.115 6.69509C8.26806 6.84816 8.42113 6.77163 8.5742 6.61856C9.49259 6.00629 10.3345 5.39403 11.2529 4.78176C11.6355 4.55216 11.9417 4.62869 12.0947 4.93483C12.2478 5.24096 12.0947 5.47056 11.7886 5.70016C10.9467 6.31243 10.1049 6.84816 9.26299 7.46042C9.10993 7.53696 9.10993 7.69002 9.18646 7.84309C9.49259 8.60842 9.33953 9.37376 8.80379 9.90949C8.26806 10.5218 7.57926 10.7514 6.7374 10.5218C6.5078 10.4452 6.43126 10.5218 6.2782 10.6748C4.74753 12.8943 3.82913 15.3434 3.59953 18.0985C3.2934 20.8537 3.7526 23.4559 4.82406 25.9815C4.9006 26.2111 5.05366 26.2876 5.3598 26.2876C6.43126 26.2876 7.50273 26.2876 8.49766 26.2876C8.57419 25.9815 8.49766 25.8284 8.3446 25.6753C7.4262 24.91 6.81393 23.9916 6.66086 22.8436C6.66086 22.614 6.58433 22.5375 6.35473 22.4609C4.97713 22.0783 4.51793 20.3945 5.51286 19.3231C5.5894 19.2465 5.66593 19.0169 5.66593 18.8639C5.66593 17.7159 5.66593 16.6444 5.66593 15.4964C5.66593 13.8127 6.7374 12.5882 8.26806 12.282C8.49766 12.2055 8.80379 12.2055 9.03339 12.2055C10.1814 12.2055 11.3294 12.2055 12.4774 12.2055C13.2427 12.2055 14.0081 12.4351 14.6203 12.9708C14.6969 13.0474 14.8499 13.0474 14.9265 13.0474C15.6153 12.7412 16.3041 12.6647 17.0694 12.6647C17.4521 12.6647 17.7582 12.6647 18.1409 12.6647C18.447 12.6647 18.6766 12.8943 18.7531 13.2004C18.7531 13.5066 18.5235 13.7362 18.1409 13.7362C17.6051 13.7362 17.0694 13.7362 16.5337 13.7362C15.1561 13.7362 14.0081 14.8076 13.9315 16.1852C13.855 17.3332 13.9315 18.4812 13.9315 19.6292C13.9315 19.7057 13.9315 19.7057 13.9315 19.7823C14.2377 19.8588 14.2377 19.7057 14.3142 19.4761C14.4673 18.6343 14.7734 17.8689 15.2326 17.1801C15.5387 16.7975 15.6918 16.7209 16.151 16.874C17.6051 17.3332 18.9827 17.7159 20.5134 17.8689C20.8961 17.8689 21.3552 17.8689 21.7379 17.7924C21.9675 17.7159 22.2737 17.5628 22.4267 17.4097C22.7329 17.1036 23.1155 17.1036 23.3451 17.4863C23.7278 18.0985 24.0339 18.7873 24.1104 19.4761C24.1104 19.6292 24.187 19.8588 24.4166 19.7823C24.4166 19.7057 24.4166 19.6292 24.4166 19.5527C24.4166 18.7873 24.4166 18.022 24.4166 17.2567C24.4166 16.874 24.34 16.6444 23.8808 16.6444C23.5747 16.5679 23.4216 16.3383 23.4216 16.0322C23.4216 15.4199 23.1921 14.9607 22.8094 14.5015C22.3502 13.9658 21.7379 13.7362 21.1257 13.7362C20.8961 13.7362 20.6665 13.7362 20.5134 13.7362C20.2073 13.7362 19.9777 13.5066 19.9777 13.2004C19.9777 12.8943 20.2073 12.6647 20.5134 12.6647C21.3553 12.5882 22.1971 12.7412 22.8859 13.1239C23.6512 12.3586 24.5696 12.129 25.5646 12.2055C26.7126 12.2055 27.784 12.2055 28.932 12.2055C30.3862 12.2055 31.5342 13.1239 31.9168 14.5015C31.9168 14.578 31.9934 14.7311 32.1464 14.8076C32.6056 15.1138 32.8352 15.573 32.8352 16.1087C32.8352 16.9505 32.8352 17.8689 32.8352 18.7108C32.8352 18.8639 32.9118 19.0935 33.0648 19.17C34.0598 20.2415 33.6006 21.8487 32.223 22.3079C31.9934 22.3844 31.9934 22.4609 31.9168 22.614C31.6872 23.762 31.1515 24.7569 30.2331 25.5223C30.08 25.5988 30.08 25.8284 29.927 25.9815L30.0035 26.058C30.5392 26.058 30.9984 26.058 31.5342 26.058C32.0699 26.058 32.6822 26.058 33.2179 26.058C33.524 26.058 33.6006 25.9815 33.7536 25.7519C34.8251 23.2263 35.2078 20.6241 34.9782 17.9455C34.7486 15.2668 33.8302 12.8178 32.376 10.5983C32.223 10.3687 32.0699 10.2922 31.8403 10.3687C31.075 10.5983 30.3862 10.3687 29.8504 9.75642C29.3147 9.14416 29.1616 8.45536 29.4678 7.69002C29.3912 7.69002 29.3147 7.53696 29.1616 7.38389C26.9422 5.62363 24.4166 4.47563 21.5849 4.01643C21.2787 3.93989 21.1257 4.01643 20.9726 4.32256C20.2073 5.70016 18.2174 5.62363 17.4521 4.32256C17.299 4.09296 17.1459 4.01643 16.9163 4.09296C15.9979 4.32256 15.0795 4.55216 14.1611 4.78176C14.0081 4.85829 13.7019 4.85829 13.5489 4.78176C13.3958 4.70523 13.2427 4.47563 13.3193 4.32256C13.3958 4.16949 13.5489 3.86336 13.7019 3.86336C14.6203 3.55723 15.4622 3.40416 16.3806 3.17456C16.4571 3.17456 16.4571 3.17456 16.5337 3.17456C16.9929 3.17456 17.2225 3.0215 17.3755 2.5623C17.7582 1.6439 18.447 1.26123 19.3654 1.26123C20.2073 1.33776 20.8961 1.72043 21.2022 2.5623C21.3553 2.86843 21.5083 2.94496 21.8144 3.0215C24.8758 3.4807 27.5544 4.62869 29.927 6.61856C30.1566 6.77163 30.3096 6.84816 30.6158 6.69509C31.3811 6.38896 32.2995 6.61856 32.8352 7.23083C33.371 7.84309 33.524 8.76149 33.1414 9.52682C33.0648 9.67989 32.9883 9.83296 33.1414 10.0626C36.5854 15.1903 37.0446 20.6241 34.7486 26.3641C34.7486 26.4407 34.672 26.5172 34.672 26.5937C34.8251 26.6703 34.9016 26.7468 35.0547 26.8999C35.82 27.5121 36.2027 28.2775 36.2027 29.2724C36.2027 30.8031 36.2027 32.4103 36.2027 33.9409C36.2027 34.8593 35.7435 35.3185 34.8251 35.3185C32.9883 35.3185 31.228 35.3185 29.3912 35.3185C29.2382 35.3185 29.0851 35.3185 28.932 35.3185C28.932 35.7777 28.932 36.1604 28.932 36.5431C29.0086 37.3084 28.7024 37.7676 28.0136 38.0737C22.1206 37.9972 16.3806 37.9972 10.5641 37.9972ZM23.1155 29.2724C22.8859 31.7215 21.0491 33.0225 19.2889 33.0225C18.3705 33.0225 17.6051 32.7929 16.9163 32.1807C15.9214 31.4153 15.4622 30.4204 15.3857 29.1959C14.5438 29.1959 13.7785 29.1959 12.9366 29.1959C11.559 29.1959 10.7171 30.0377 10.7171 31.4153C10.7171 33.0991 10.7171 34.7828 10.7171 36.4665C10.7171 36.7727 10.7937 36.9257 11.1763 36.9257C14.3142 36.9257 17.4521 36.9257 20.5899 36.9257C22.8859 36.9257 25.1819 36.9257 27.4779 36.9257C27.631 36.9257 27.8606 37.0023 27.8606 36.6961C27.8606 34.8593 27.8606 33.0991 27.8606 31.2623C27.8606 30.2673 27.0187 29.3489 26.1003 29.3489C25.0288 29.1959 24.1104 29.2724 23.1155 29.2724ZM22.8859 18.7873C20.4369 19.6292 18.2939 18.7108 16.0745 18.1751C15.9979 18.2516 15.9214 18.3281 15.9214 18.4812C15.5387 19.0169 15.3857 19.6292 15.3857 20.2415C15.3857 21.5425 15.3091 22.8436 15.4622 24.0681C15.6918 26.058 17.5286 27.5121 19.5185 27.3591C21.5083 27.206 23.1155 25.5988 23.1155 23.6089C23.1155 22.4609 23.1155 21.3129 23.1155 20.1649C23.1155 19.7057 22.9624 19.2465 22.8859 18.7873ZM7.96193 17.6393C7.8854 18.0985 7.73233 18.4812 7.6558 18.8639C7.57926 20.0119 7.57926 21.2364 7.6558 22.3844C7.80886 24.4508 9.64566 25.8284 11.6355 25.5223C12.6305 25.3692 13.4723 24.7569 14.0081 23.9151C13.9315 23.9151 13.855 23.8385 13.855 23.8385C12.5539 23.3028 12.0947 22.0783 12.7835 20.8537C12.7835 20.7772 12.8601 20.7772 12.8601 20.7007C12.8601 19.9353 12.8601 19.2465 12.8601 18.4812C11.1763 18.4812 9.64566 18.0985 7.96193 17.6393ZM34.9782 34.1705C34.9782 32.4103 34.9782 30.7265 34.9782 29.0428C34.9782 28.2775 34.3659 27.5121 33.6006 27.4356C32.6822 27.3591 31.8403 27.4356 30.9219 27.4356C30.6923 29.1193 30.2331 29.8081 28.779 30.65C28.779 31.8745 28.779 33.0225 28.779 34.1705C30.9219 34.1705 32.9118 34.1705 34.9782 34.1705ZM24.4931 23.8385C24.4931 23.9151 24.5696 23.9916 24.5696 23.9916C25.335 25.1396 26.8656 25.7519 28.1667 25.4457C29.6208 25.0631 30.6923 23.9151 30.7688 22.4609C30.8454 21.3895 30.8454 20.2415 30.7688 19.17C30.7688 18.7873 30.6158 18.3281 30.6158 17.9455C28.8555 18.7873 27.2483 18.2516 25.5646 17.9455C25.5646 18.7108 25.5646 19.4761 25.5646 20.2415C25.5646 20.4711 25.6411 20.6241 25.7176 20.7772C26.2534 21.8487 25.8707 23.1497 24.7227 23.6089C24.6462 23.762 24.5696 23.8385 24.4931 23.8385ZM23.8043 13.8892C24.0339 14.425 24.2635 14.9607 24.4931 15.4964C24.5696 15.726 24.6462 15.8026 24.7992 15.9556C25.0288 16.1852 25.2584 16.4148 25.488 16.721C25.5646 16.7975 25.7176 16.9506 25.7942 17.0271C26.3299 17.1802 26.7891 17.3332 27.3248 17.3332C28.0902 17.4097 28.779 17.4097 29.5443 17.3332C29.7739 17.3332 29.927 17.0271 30.08 16.874C30.2331 16.7209 30.3862 16.4914 30.5392 16.4914C30.6923 16.4914 30.9219 16.6444 31.075 16.7975C31.3046 17.1036 31.4576 17.4097 31.6107 17.7924C31.6107 17.1802 31.6107 16.6444 31.6107 16.1852C31.6107 16.1087 31.4576 15.9556 31.3811 15.8791C30.9984 15.8026 30.8454 15.573 30.8454 15.1903C30.7688 14.1954 30.0035 13.43 29.0086 13.43C27.7075 13.43 26.4064 13.43 25.1054 13.43C24.5696 13.3535 24.1104 13.5831 23.8043 13.8892ZM6.81393 17.6393C6.967 17.4097 7.12006 17.1801 7.1966 16.9505C7.50273 16.4914 7.6558 16.4148 8.19153 16.5679C8.95686 16.7975 9.72219 16.9505 10.4875 17.1801C11.2529 17.3332 12.0947 17.4863 12.9366 17.3332C12.8601 16.0322 13.0131 14.8076 13.9315 13.8892C13.5489 13.5831 13.1662 13.43 12.707 13.43C11.4059 13.43 10.1814 13.43 8.88033 13.43C7.73233 13.43 6.89046 14.1954 6.81393 15.3434C6.7374 16.0322 6.81393 16.874 6.81393 17.6393ZM20.8195 28.2009C19.595 28.5071 19.2123 28.5836 17.6051 28.2009C17.8347 29.1193 17.299 29.3489 16.5337 29.1959C16.6102 30.7265 17.8347 31.9511 19.3654 31.9511C20.8961 31.8745 22.1206 30.65 22.0441 29.2724C21.7379 29.1959 21.3553 29.1959 21.2022 29.0428C20.8961 28.8897 20.8961 28.5071 20.8195 28.2009ZM10.0283 29.5785C10.411 29.1959 10.7937 28.8897 11.1763 28.5836C11.7886 28.2009 12.4009 28.1244 13.1662 28.1244C13.3193 28.1244 13.4723 28.0479 13.4723 27.9713C13.5489 27.8183 13.5489 27.5887 13.6254 27.2825C12.9366 27.3591 12.4774 27.206 12.5539 26.3641C11.559 26.6703 10.6406 26.6703 9.72219 26.4407C9.64566 26.7468 9.56913 27.0529 9.41606 27.206C9.26299 27.3591 8.88033 27.3591 8.65073 27.4356C8.57419 28.2775 9.18646 29.1959 10.0283 29.5785ZM25.9472 26.4407C25.7942 27.206 25.7942 27.206 24.9523 27.3591C24.8758 28.0479 24.9523 28.1244 25.6411 28.1244C26.483 28.1244 27.2483 28.354 27.8606 28.9663C28.0902 29.1193 28.2432 29.3489 28.4728 29.5785C29.3912 29.1959 30.08 28.1244 29.927 27.3591C29.0851 27.2825 29.0086 27.3591 28.932 26.4407C27.8606 26.7468 26.9422 26.6703 25.9472 26.4407ZM7.27313 9.60336C7.80886 9.60336 8.26806 9.14416 8.26806 8.60842C8.26806 8.07269 7.80886 7.61349 7.34966 7.61349C6.81393 7.61349 6.35473 7.99616 6.35473 8.53189C6.2782 9.14416 6.7374 9.60336 7.27313 9.60336ZM19.2123 4.24603C19.7481 4.24603 20.2073 3.78683 20.2073 3.2511C20.2073 2.71536 19.7481 2.3327 19.2123 2.25616C18.6766 2.25616 18.2174 2.71536 18.2174 3.2511C18.2939 3.86336 18.6766 4.24603 19.2123 4.24603ZM31.228 9.60336C31.7638 9.60336 32.223 9.14416 32.223 8.60842C32.223 8.07269 31.8403 7.69002 31.3046 7.61349C30.7688 7.61349 30.3096 7.99616 30.3096 8.53189C30.2331 9.14416 30.6923 9.60336 31.228 9.60336ZM16.4571 28.1244C16.5337 27.6652 16.3806 27.3591 16.0745 27.3591C15.6153 27.2825 15.1561 27.3591 14.6203 27.3591C14.6203 27.6652 14.5438 27.8948 14.5438 28.1244C15.2326 28.1244 15.8449 28.1244 16.4571 28.1244ZM23.8043 27.3591C23.4216 27.3591 23.039 27.3591 22.6563 27.3591C22.1206 27.3591 21.891 27.5887 22.0441 28.1244C22.6563 28.1244 23.2686 28.1244 23.9574 28.1244C23.8808 27.8183 23.8808 27.5887 23.8043 27.3591ZM24.8758 26.2111C24.8758 25.5223 24.187 25.4457 23.9574 24.9865C23.7278 25.4457 23.5747 25.7519 23.3451 26.2111C23.8808 26.2111 24.34 26.2111 24.8758 26.2111ZM15.0795 26.2111C14.8499 25.8284 14.6969 25.4457 14.4673 25.0631C14.2377 25.2927 14.0846 25.4457 13.855 25.5988C13.6254 25.7519 13.3958 25.9049 13.5489 26.2111C14.1611 26.2111 14.6203 26.2111 15.0795 26.2111ZM14.2377 22.7671C14.2377 22.1548 14.2377 21.6191 14.2377 21.0068C13.7785 21.0833 13.5489 21.3895 13.5489 21.7721C13.5489 22.2313 13.7785 22.614 14.2377 22.7671ZM24.187 21.0068C24.187 21.6191 24.187 22.1548 24.187 22.7671C24.6462 22.6905 24.8758 22.3079 24.8758 21.9252C24.9523 21.466 24.6462 21.1599 24.187 21.0068ZM6.58433 19.9353C6.20166 20.0884 6.0486 20.3945 6.0486 20.7007C6.0486 21.0068 6.20166 21.2364 6.58433 21.3895C6.58433 20.9303 6.58433 20.4711 6.58433 19.9353ZM31.9168 21.3895C32.2995 21.2364 32.4526 21.0068 32.4526 20.6241C32.4526 20.318 32.2995 20.0884 31.9168 19.9353C31.9168 20.4711 31.9168 20.9303 31.9168 21.3895Z" fill="white"/>
        </g>
        <defs>
        <clipPath id="clip0_1458_23935">
        <rect width="38" height="38" fill="white" transform="translate(0 0.66748)"/>
        </clipPath>
        </defs>
  		</symbol>

       <symbol viewBox="0 0 48 48" id="icons">
          <path d="M23.4629 47.9315C22.5727 47.7261 21.751 47.4522 21.2032 46.699C20.8609 46.2197 20.587 45.6034 20.3131 45.0556C20.1761 44.7817 20.1077 44.6448 19.8338 44.5763C18.0535 44.234 16.2731 43.6177 14.6298 42.796C12.0278 41.495 9.76815 39.7147 7.91936 37.4551C7.71394 37.1812 7.50852 37.1812 7.23463 37.2496C5.52279 37.8659 3.674 37.1127 2.78384 35.5378C1.89368 33.8944 2.23605 31.9087 3.74247 30.8131C4.01637 30.6077 4.08484 30.4023 3.94789 30.0599C2.71537 26.02 2.71537 21.9116 3.94789 17.8716C4.01637 17.5977 4.01637 17.3923 3.74247 17.1869C2.23605 16.0913 1.82521 14.1056 2.71537 12.4622C3.60553 10.8188 5.45431 10.1341 7.23463 10.7504C7.57699 10.8873 7.71394 10.7504 7.91936 10.5449C9.76815 8.28531 12.0278 6.50499 14.6298 5.20399C16.2047 4.38231 17.9165 3.83452 19.6283 3.49215C20.0392 3.42368 20.3131 3.28673 20.45 2.73894C20.7239 1.09558 22.2988 0 24.0107 0C25.7225 0 27.2289 1.23252 27.5713 2.87589C27.6398 3.28673 27.8452 3.42368 28.1876 3.49215C30.995 4.03994 33.5285 5.13552 35.8566 6.77889C37.4315 7.87447 38.801 9.10699 39.965 10.5449C40.1704 10.8188 40.3759 10.8873 40.7182 10.7504C42.3616 10.1341 44.2789 10.8873 45.169 12.3937C46.0592 14.0371 45.7168 16.0228 44.2789 17.1184C44.005 17.3238 43.9365 17.5292 44.005 17.8716C45.2375 21.9116 45.2375 26.02 44.005 30.0599C43.9365 30.3338 43.9365 30.5392 44.2104 30.7447C45.5798 31.7718 46.0592 33.689 45.3744 35.2639C44.6212 36.9073 42.8409 37.8659 41.1975 37.3866C40.4443 37.1812 40.102 37.3866 39.6226 37.9344C36.6098 41.3581 32.7753 43.5492 28.3245 44.5078C27.9137 44.5763 27.6398 44.7817 27.5713 45.2611C27.1604 46.699 26.2018 47.5207 24.8323 47.9315C24.6954 47.9315 24.6269 48 24.49 48C24.0791 47.9315 23.8052 47.9315 23.4629 47.9315ZM23.9422 13.4893C18.1904 13.4893 13.4657 18.214 13.4657 23.9658C13.4657 29.7175 18.1904 34.4422 23.9422 34.4422C29.694 34.4422 34.4186 29.7175 34.4186 23.9658C34.4186 18.214 29.694 13.4893 23.9422 13.4893ZM20.3816 4.86163C15.6569 5.75178 11.8224 8.07989 8.80952 11.7775C9.6312 12.8046 9.9051 13.9001 9.6312 15.1327C9.6312 15.2696 9.76815 15.4066 9.83662 15.475C10.7268 15.9544 11.6169 16.4337 12.5071 16.913C12.9179 17.1184 13.3288 17.3923 13.7396 17.5977C16.2047 13.9686 19.5599 11.9829 23.9422 11.9829C28.3245 11.9829 31.6112 14.0371 34.0763 17.5977C35.2403 16.9815 36.3359 16.3652 37.4315 15.7489C37.9793 15.475 38.3216 15.2011 38.1847 14.4479C37.9793 13.4208 38.3901 12.5307 39.0749 11.709C36.062 8.01141 32.2275 5.68331 27.5028 4.79315C27.0235 6.2311 26.0649 7.05278 24.6269 7.39515C24.6269 8.42225 24.6269 9.44936 24.6269 10.408C24.1476 10.408 23.6683 10.408 23.1205 10.408C23.1205 9.38089 23.1205 8.35378 23.1205 7.39515C21.8195 7.05278 20.8609 6.2311 20.3816 4.86163ZM8.80952 36.1541C11.8908 39.8516 15.6569 42.1797 20.3816 43.0699C20.8609 41.7004 21.8195 40.8103 23.2575 40.4679C23.2575 39.4408 23.2575 38.4137 23.2575 37.4551C23.8052 37.4551 24.2161 37.4551 24.7639 37.4551C24.7639 38.4822 24.7639 39.5093 24.7639 40.4679C26.2018 40.8103 27.092 41.7004 27.5713 43.0699C32.296 42.1113 36.1305 39.8516 39.1433 36.1541C38.2532 34.7846 38.1847 34.3738 38.3216 32.7989C38.3216 32.6619 38.2532 32.525 38.1847 32.4565C36.8837 31.7033 35.5142 31.0185 34.1448 30.2653C31.6797 33.8944 28.3245 35.8802 23.9422 35.8802C19.5599 35.8802 16.2047 33.826 13.7396 30.2653C12.3701 31.0185 11.0691 31.7033 9.76815 32.4565C9.69968 32.525 9.56273 32.6619 9.6312 32.7989C9.9051 34.0999 9.56273 35.1954 8.80952 36.1541ZM13.0549 28.9643C11.6169 25.6091 11.6169 22.2539 13.0549 18.8987C11.6169 18.1455 10.2475 17.3238 8.80952 16.5706C7.85089 17.5977 6.75531 18.0086 5.38584 17.8716C4.15331 21.9116 4.15331 25.883 5.38584 29.923C6.75531 29.786 7.85089 30.2653 8.80952 31.224C10.2475 30.5392 11.6169 29.786 13.0549 28.9643ZM39.0749 31.2924C39.965 30.4023 40.9921 29.8545 42.2931 29.923C42.3616 29.923 42.567 29.7175 42.6355 29.6491C43.3202 27.4579 43.5941 25.2668 43.4572 22.9387C43.3887 21.2268 43.1148 19.5835 42.4985 17.9401C41.1975 18.077 40.102 17.6662 39.2118 16.776C39.1433 16.7076 38.9379 16.7076 38.801 16.776C38.1847 17.1184 37.5684 17.4608 37.0206 17.7347C36.3359 18.1455 35.5827 18.4879 34.898 18.8987C36.3359 22.2539 36.3359 25.6091 34.898 28.9643C36.2674 29.786 37.6369 30.5392 39.0749 31.2924ZM23.9422 5.9572C25.1747 5.9572 26.2018 4.9301 26.2018 3.76605C26.2018 2.53352 25.2432 1.50642 24.0107 1.50642C22.7781 1.50642 21.751 2.53352 21.751 3.76605C21.6826 4.9301 22.7097 5.9572 23.9422 5.9572ZM8.19326 14.2425C8.19326 13.01 7.16615 11.9829 5.93363 11.9829C4.7011 11.9829 3.674 13.01 3.674 14.2425C3.674 15.475 4.7011 16.4337 5.93363 16.4337C7.23463 16.4337 8.19326 15.4066 8.19326 14.2425ZM44.1419 14.2425C44.1419 13.01 43.1148 11.9829 41.9507 11.9829C40.7182 11.9829 39.6911 12.9415 39.6911 14.174C39.6911 15.4066 40.7182 16.4337 41.9507 16.4337C43.1148 16.5021 44.1419 15.475 44.1419 14.2425ZM8.19326 33.689C8.19326 32.4565 7.16615 31.4294 5.93363 31.4294C4.7011 31.4294 3.674 32.4565 3.674 33.689C3.674 34.9215 4.7011 35.9486 5.93363 35.9486C7.23463 35.9486 8.19326 34.9215 8.19326 33.689ZM44.1419 33.689C44.1419 32.4565 43.1148 31.4294 41.9507 31.4294C40.7182 31.4294 39.6911 32.388 39.6911 33.6205C39.6911 34.8531 40.7182 35.8802 41.9507 35.8802C43.1148 35.9486 44.1419 34.9215 44.1419 33.689ZM23.9422 41.9743C22.7097 41.9743 21.6826 43.0014 21.6826 44.1655C21.6826 45.398 22.7097 46.4251 23.9422 46.4251C25.1747 46.4251 26.2018 45.398 26.2018 44.1655C26.2018 42.933 25.1747 41.9743 23.9422 41.9743Z" fill="white"/>
<path d="M21.545 23.0748C20.1071 21.7738 19.9017 20.1989 20.3125 18.487C20.7233 16.7067 22.5037 15.5427 24.2155 15.6796C26.2012 15.885 27.5022 17.3915 27.6392 19.3772C27.7077 20.7467 27.4338 21.9792 26.2697 23.0063C26.4751 23.1432 26.6806 23.3487 26.886 23.4856C27.9816 24.1703 29.1456 24.8551 30.2412 25.4713C30.5151 25.6083 30.652 25.8137 30.5835 26.1561C30.5835 26.8408 30.5835 27.5255 30.5835 28.1418C30.652 29.032 30.1727 29.6482 29.4195 29.9221C28.6663 30.196 27.8446 30.4014 27.0914 30.4699C24.6263 30.6753 22.0928 30.7438 19.6278 30.333C19.2169 30.2645 18.8061 30.1275 18.3952 29.9906C17.5736 29.6482 17.0942 29.032 17.1627 28.1418C17.1627 27.4571 17.1627 26.7723 17.1627 26.0876C17.1627 25.8137 17.2312 25.6768 17.4366 25.5398C18.6007 24.8551 19.6962 24.1703 20.8603 23.4856C21.1342 23.4171 21.3396 23.2802 21.545 23.0748ZM23.5308 29.2374C24.9002 29.1689 25.8589 29.1689 26.8175 29.1004C27.4338 29.032 28.1185 28.895 28.7348 28.7581C29.0771 28.6896 29.1456 28.4842 29.1456 28.1418C29.351 27.0462 28.9402 26.293 27.8446 25.8822C27.7077 25.8137 27.5707 25.7452 27.5022 25.6768C26.6806 25.129 25.8589 24.5127 25.0372 23.9649C24.9687 23.8964 24.7633 23.8965 24.6263 23.8965C24.0786 23.8965 23.5992 23.8965 23.0515 23.8965C22.9145 23.8965 22.7091 23.8964 22.6406 23.9649C21.7505 24.9236 20.5864 25.4713 19.4908 26.0876C18.8061 26.4984 18.4637 26.9093 18.6007 27.731C18.6691 28.6896 18.6691 28.6896 19.5593 28.9635C19.6278 28.9635 19.6278 28.9635 19.6962 28.9635C21.2027 29.032 22.5721 29.1689 23.5308 29.2374ZM21.682 19.788C21.682 19.9935 21.682 20.1989 21.682 20.4043C21.7505 21.5683 22.7091 22.39 23.8047 22.4585C24.9002 22.527 25.9273 21.7738 26.0643 20.6782C26.1328 20.0619 26.1328 19.4457 25.9958 18.8979C25.6535 17.5284 24.0101 16.8437 22.7776 17.5284C22.0243 18.0077 21.682 18.8294 21.682 19.788Z" fill="white"/>
<path d="M24.6958 4.44966C24.2164 4.44966 23.7371 4.44966 23.2578 4.44966C23.2578 3.97035 23.2578 3.49103 23.2578 3.01172C23.7371 3.01172 24.2164 3.01172 24.6958 3.01172C24.6958 3.49103 24.6958 3.97035 24.6958 4.44966Z" fill="white"/>
<path d="M6.68599 14.9267C6.20668 14.9267 5.72736 14.9267 5.24805 14.9267C5.24805 14.4474 5.24805 13.9681 5.24805 13.4888C5.72736 13.4888 6.20668 13.4888 6.68599 13.4888C6.68599 13.9681 6.68599 14.4474 6.68599 14.9267Z" fill="white"/>
<path d="M42.6352 13.4888C42.6352 13.9681 42.6352 14.4474 42.6352 14.9267C42.1559 14.9267 41.6766 14.9267 41.1973 14.9267C41.1973 14.4474 41.1973 13.9681 41.1973 13.4888C41.6766 13.4888 42.1559 13.4888 42.6352 13.4888Z" fill="white"/>
<path d="M6.68599 34.4417C6.20668 34.4417 5.72736 34.4417 5.24805 34.4417C5.24805 33.9624 5.24805 33.4831 5.24805 33.0038C5.72736 33.0038 6.20668 33.0038 6.68599 33.0038C6.68599 33.4831 6.68599 33.9624 6.68599 34.4417Z" fill="white"/>
<path d="M42.6352 33.0038C42.6352 33.4831 42.6352 33.9624 42.6352 34.4417C42.1559 34.4417 41.6766 34.4417 41.1973 34.4417C41.1973 33.9624 41.1973 33.4831 41.1973 33.0038C41.6766 33.0038 42.1559 33.0038 42.6352 33.0038Z" fill="white"/>
<path d="M24.6958 43.4807C24.6958 43.96 24.6958 44.4393 24.6958 44.9187C24.2164 44.9187 23.7371 44.9187 23.2578 44.9187C23.2578 44.4393 23.2578 43.96 23.2578 43.4807C23.7371 43.4807 24.148 43.4807 24.6958 43.4807Z" fill="white"/>
  		</symbol>

      <symbol viewBox="0 0 14 12" id="poligon">
      <path d="M5.92254 7.53442C5.49466 8.21378 4.50428 8.21378 4.07639 7.53442L0.384211 1.6723C-0.0733378 0.945841 0.448747 -1.92373e-06 1.30729 -1.84868e-06L8.69165 -1.20312e-06C9.55019 -1.12806e-06 10.0723 0.94584 9.61472 1.6723L5.92254 7.53442Z" fill="#331A2F" fill-opacity="0.9"/>

      </symbol>

</svg>
